<svg xmlns="http://www.w3.org/2000/svg" viewBox="0 0 180 46.58"><defs><style>.cls-1{fill:#3259a5;}</style></defs><g id="Livello_2" data-name="Livello 2"><g id="Livello_1-2" data-name="Livello 1"><path d="M64.22,24.29l-.9,5.77c-.1.61-.21,1.22-.3,1.82,0,.21-.11.31-.32.29H38c-.14,0-.24-.05-.24-.22s0-.29.21-.32.66-.14,1-.23a3,3,0,0,0,2.27-2.25,11.08,11.08,0,0,0,.31-3.09q0-10.12,0-20.26a9.22,9.22,0,0,0-.16-2,2.38,2.38,0,0,0-2.17-2.08A11,11,0,0,0,38,1.57c-.21,0-.31-.08-.31-.3s.16-.27.34-.26H60.5a2.09,2.09,0,0,0,.25,0c.34,0,.49.1.59.43.4,1.34.83,2.67,1.25,4,.16.51.32,1,.47,1.52,0,.13.17.32,0,.4a.56.56,0,0,1-.65,0A1.23,1.23,0,0,1,62.21,7c-.29-.42-.57-.84-.87-1.25a9.09,9.09,0,0,0-5.5-3.42A17.89,17.89,0,0,0,52,1.92c-1.45,0-2.89,0-4.34,0-1.06,0-1.43.4-1.49,1.48,0,.36,0,.72,0,1.09V15.25c0,.15,0,.3,0,.45s.06.24.22.24a24.32,24.32,0,0,0,5.52-.32,4.57,4.57,0,0,0,2.92-2.28,11.07,11.07,0,0,0,1.07-2.65L56,10.2c0-.21.21-.23.39-.23s.22.15.22.3v12c0,.14,0,.27-.18.29s-.36,0-.42-.19-.18-.66-.28-1a10.6,10.6,0,0,0-.61-1.53A4.94,4.94,0,0,0,51.23,17a22,22,0,0,0-3.63-.16,4.65,4.65,0,0,0-1.44.07,8.07,8.07,0,0,0,0,1.39c0,2.74,0,5.48,0,8.22a8.08,8.08,0,0,0,.23,2,3.2,3.2,0,0,0,2,2.27,6.9,6.9,0,0,0,2.18.45,27.32,27.32,0,0,0,5.27-.2,8.3,8.3,0,0,0,5.38-3.11,21.12,21.12,0,0,0,2.16-3.36C63.62,24.14,63.63,24.14,64.22,24.29Z"/><path d="M75.31,8.24c.17-.81.33-1.59.5-2.38.37-1.74.73-3.48,1.1-5.23A2.22,2.22,0,0,0,77,.26c0-.14.08-.24.24-.23a2.32,2.32,0,0,1,1,.12A9.57,9.57,0,0,0,82,.93c4.57.15,9.14,0,13.71.07,2.29,0,4.59,0,6.88,0a8.59,8.59,0,0,0,3.57-.81,1.44,1.44,0,0,1,.68-.12c.51,0,.52,0,.62.48.2.91.39,1.82.59,2.73l1.08,5c-.7.19-.74.18-1.09-.36a20.8,20.8,0,0,0-2.45-3.17,8.73,8.73,0,0,0-5.44-2.62c-1.74-.2-3.48-.13-5.22-.16-.34,0-.44.11-.43.44,0,.57,0,1.15,0,1.72q0,10.77,0,21.53a14.6,14.6,0,0,0,.3,3.36,3.08,3.08,0,0,0,2.07,2.3c.34.12.69.21,1,.31s.33.17.3.41-.23.2-.39.2H87a1.71,1.71,0,0,1-.32,0c-.17,0-.41.1-.46-.19s.21-.37.42-.42c.36-.08.7-.17,1-.28a2.84,2.84,0,0,0,2-2.22,13.44,13.44,0,0,0,.26-3.1V2.45c0-.57.06-.55-.55-.55-1.38,0-2.77,0-4.15.06a9.26,9.26,0,0,0-5.64,2,13.15,13.15,0,0,0-2.35,2.59,9.5,9.5,0,0,0-.79,1.23C76.2,8.28,75.88,8.4,75.31,8.24Z"/><path d="M120.67,8.24c.25-1.14.49-2.28.73-3.42.3-1.43.6-2.86.91-4.29.1-.5.11-.5.61-.5a1.42,1.42,0,0,1,.67.12,9.91,9.91,0,0,0,3.72.78c2.53.12,5.06.07,7.59.07,3.67,0,7.35,0,11,0A23.77,23.77,0,0,0,149.3.84,8.13,8.13,0,0,0,151.42.2a1.76,1.76,0,0,1,.35-.15,1.63,1.63,0,0,1,.88,0c.23.1.17.42.22.63.53,2.38,1,4.77,1.56,7.15,0,.13,0,.25.06.37-.73.17-.73.17-1.09-.39a18.32,18.32,0,0,0-2.78-3.48,8.7,8.7,0,0,0-5.07-2.29,51.84,51.84,0,0,0-5.29-.16c-.26,0-.39.08-.36.36s0,.34,0,.51V25.65a15.37,15.37,0,0,0,.24,3.1,3.08,3.08,0,0,0,2.23,2.53l.78.25c.22.06.48.08.44.42s-.31.21-.49.22H131.88c-.13,0-.27,0-.28-.18s0-.33.22-.38.62-.14.93-.22a3,3,0,0,0,2.32-2.57,17.32,17.32,0,0,0,.21-3.05q0-11.62,0-23.26c0-.1,0-.21,0-.31s-.11-.3-.31-.3a36.92,36.92,0,0,0-6,.26A9,9,0,0,0,123.86,5a17.91,17.91,0,0,0-2.08,2.81C121.44,8.37,121.43,8.37,120.67,8.24Z"/><path d="M172.88,32.17c-2.13,0-4.25,0-6.38,0-.19,0-.51.17-.57-.18s.33-.37.55-.41a12.37,12.37,0,0,0,1.8-.42,3.09,3.09,0,0,0,2.25-2.85,21.81,21.81,0,0,0,.12-2.29q0-9.75,0-19.49a9.71,9.71,0,0,0-.24-2.28,2.89,2.89,0,0,0-1.8-2.08,9.88,9.88,0,0,0-2.34-.57c-.21,0-.36-.07-.34-.34s.18-.24.35-.24h13.46c.18,0,.26.08.26.26s0,.28-.24.31c-.44.06-.87.15-1.31.24a5.66,5.66,0,0,0-.56.13,3.17,3.17,0,0,0-2.52,3.13c-.07.8-.1,1.61-.1,2.41V25.78a14.77,14.77,0,0,0,.22,3,2.93,2.93,0,0,0,1.88,2.23,7.9,7.9,0,0,0,2,.49c.17,0,.33.07.5.1s.15.17.16.3a.2.2,0,0,1-.23.23h-6.88Z"/><path d="M18.72,42.88H36.83a.46.46,0,0,1,.46.7.24.24,0,0,1-.25.15H.75a1.2,1.2,0,0,1-.19,0c-.47,0-.63-.23-.5-.67a.22.22,0,0,1,.23-.18H18.72Z"/><path d="M161.33,42.5h18.18c.46,0,.49,0,.49.56,0,.22-.11.3-.32.29H143.21a.47.47,0,0,1-.44-.72.26.26,0,0,1,.26-.13h18.3Z"/><path class="cls-1" d="M128.92,41.08a47.09,47.09,0,0,1,.13,4.9c0,.52-.05.56-.53.56s-.46,0-.46-.47V39.64c0-.46,0-.43.45-.48a1.05,1.05,0,0,1,1.09.56c1.16,1.7,2.36,3.37,3.54,5.05.3,0,.18-.13.15-.27a45.75,45.75,0,0,1-.13-4.83c0-.16-.07-.38.11-.46a1.2,1.2,0,0,1,.75,0c.09,0,.11.12.12.21v.32q0,3.12,0,6.23c0,.19.12.49-.17.54a1,1,0,0,1-.91-.1,2.25,2.25,0,0,1-.35-.45l-3.65-5.13C128.77,40.78,128.88,41,128.92,41.08Z"/><path class="cls-1" d="M88.71,45a36.23,36.23,0,0,1-.21-5.29c0-.17-.07-.39.11-.47a1.2,1.2,0,0,1,.75,0,.2.2,0,0,1,.12.21c0,.15,0,.3,0,.44v6c0,.22.09.49-.2.61a1,1,0,0,1-1-.22c-.42-.56-.83-1.14-1.23-1.71L84.6,41.1c-.09-.12-.14-.31-.38-.36a43.25,43.25,0,0,1,.17,4.95c0,.13,0,.25,0,.38,0,.43,0,.46-.49.47s-.49,0-.49-.51V39.66c0-.48,0-.47.5-.5a.94.94,0,0,1,1,.45c1.14,1.67,2.31,3.31,3.47,5A1,1,0,0,0,88.71,45Z"/><path class="cls-1" d="M71.36,40.5a4,4,0,0,0-2.77-.32A2.16,2.16,0,0,0,67,41.55a3.17,3.17,0,0,0,.34,3.14,2.86,2.86,0,0,0,3,.93c.26-.09.29-.27.29-.5,0-.63,0-1.27,0-1.91s.1-.68.71-.61a.29.29,0,0,1,.29.33v2.86a.4.4,0,0,1-.31.43,5.67,5.67,0,0,1-1,.26,4.61,4.61,0,0,1-3-.4,3.78,3.78,0,0,1,1.9-6.9,5.47,5.47,0,0,1,1.71.08c.58.15.62.19.57.77a1,1,0,0,1,0,.25A2.21,2.21,0,0,1,71.36,40.5Z"/><path class="cls-1" d="M58.52,43.26V40.59c0-.52,0-.52-.54-.53s-.94,0-1.4,0-.35-.22-.35-.47,0-.44.37-.44q2.41,0,4.83,0c.32,0,.41.13.4.42s0,.47-.39.48H60c-.49,0-.5,0-.5.51v5.15c0,.15,0,.3,0,.44s-.11.4-.37.38H59.1c-.55,0-.57,0-.58-.55V43.26Z"/><path class="cls-1" d="M101.62,43.31c0-.94,0-1.87,0-2.81,0-.33-.11-.45-.44-.44-.49,0-1,0-1.47,0s-.39-.07-.39-.48.08-.42.4-.42h4.78c.38,0,.42,0,.42.45s0,.43-.44.44h-1.28c-.56,0-.57,0-.57.56v4.14c0,.47,0,.94,0,1.41s-.24.37-.5.37-.52,0-.52-.37c0-1,0-1.91,0-2.86Z"/><path class="cls-1" d="M113,42.83V39.59c0-.16,0-.37.19-.4a1,1,0,0,1,.74.05c.16.1.09.31.09.48V45c0,.73,0,.68.71.68s1.27,0,1.91,0a.47.47,0,0,1,.41.73c-.07.14-.2.14-.33.14h-3.3c-.36,0-.43-.16-.42-.47C113,45,113,43.91,113,42.83Z"/><path class="cls-1" d="M137.1,42.92c0,1,0,2.11,0,3.17,0,.44,0,.44-.49.45s-.52,0-.52-.42c0-2.18,0-4.36,0-6.55,0-.4,0-.41.52-.41s.49,0,.49.45C137.11,40.71,137.1,41.81,137.1,42.92Z"/><path class="cls-1" d="M97.06,42.86c0-1.08,0-2.16,0-3.24,0-.45,0-.45.48-.46s.53,0,.53.47q0,3.24,0,6.48c0,.41,0,.43-.51.43s-.5,0-.5-.44C97.05,45,97.06,43.94,97.06,42.86Z"/><path class="cls-1" d="M91.43,42.86c0-1.08,0-2.16,0-3.24,0-.16-.07-.37.16-.43a1.2,1.2,0,0,1,.75,0c.12.05.1.22.1.34v1.21c0,1.74,0,3.48,0,5.21,0,.18.09.43-.13.52a1.13,1.13,0,0,1-.75,0c-.17-.06-.13-.25-.13-.39V42.86Z"/><path class="cls-1" d="M74.58,42.86V46.1c0,.16,0,.38-.19.41a1.11,1.11,0,0,1-.74,0c-.14-.09-.09-.28-.09-.42V39.69c0-.17-.08-.42.16-.49a1.07,1.07,0,0,1,.75,0c.17.09.11.31.11.47Z"/><path class="cls-1" d="M64,42.83v3.24c0,.44,0,.46-.48.47s-.54,0-.54-.48q0-3.24,0-6.47c0-.42,0-.43.51-.43s.5,0,.51.43Z"/><path class="cls-1" d="M119.26,42.86V46c0,.54,0,.55-.45.56s-.56,0-.57-.52V39.64c0-.15-.06-.37.15-.44a1.07,1.07,0,0,1,.75,0c.18.08.12.3.12.46Z"/><path d="M8.63,1c2,0,4.47-.08,6.93.06A12.22,12.22,0,0,1,21,2.57a7.93,7.93,0,0,1,4.2,7.09,7.56,7.56,0,0,1-3.76,6.86,13.21,13.21,0,0,1-5.3,1.87,30.07,30.07,0,0,1-4.45.19c-.76,0-1.53,0-2.29,0-.34,0-.45.1-.44.44C9,20.32,9,21.64,9,23,9,24.48,9,26,9,27.54a6.54,6.54,0,0,0,.07.89,3.31,3.31,0,0,0,2.73,3l.8.2c.21,0,.27.15.26.36s-.16.21-.31.21H.71c-.16,0-.22-.09-.21-.25s0-.25.19-.28l.69-.12A3.15,3.15,0,0,0,4.3,28.3c0-.63.06-1.27.06-1.91q0-9.67,0-19.36a9.12,9.12,0,0,0-.27-2.65,3.68,3.68,0,0,0-3-2.69,7.18,7.18,0,0,0-.81-.12c-.19,0-.26-.1-.27-.28S.08,1,.26,1H8.63ZM9,17.14c0,.56,0,.57.54.57.92,0,1.83,0,2.74,0a13.44,13.44,0,0,0,3-.32A6.43,6.43,0,0,0,20,13.07a9.09,9.09,0,0,0,.33-4.71A7.55,7.55,0,0,0,16,2.57,9.89,9.89,0,0,0,10.66,2,1.8,1.8,0,0,0,9,3.83C9,4.21,9,4.59,9,5c0,1.87,0,3.74,0,5.61Z"/><path class="cls-1" d="M55.39,46.46a1.44,1.44,0,0,1-.25.07c-1.2,0-.94.09-1.53-.78-.41-.6-.79-1.21-1.18-1.81-.09-.12-.17-.25-.27-.36a.4.4,0,0,0-.42-.06c-.16,0-.13.2-.13.32,0,.72,0,1.44,0,2.16a.56.56,0,0,1-.86.51.21.21,0,0,1-.14-.19c0-.13,0-.26,0-.39,0-2,0-4.11,0-6.17,0-.59,0-.59.59-.59h1.66a2.62,2.62,0,0,1,1,.21,1.83,1.83,0,0,1,1.24,1.55,2,2,0,0,1-1,2,3.06,3.06,0,0,1-.58.27c-.23.08-.24.2-.11.38l.78,1.08ZM52.1,40c-.48,0-.49,0-.49.51s0,1.1,0,1.65c0,.21,0,.4.28.4a3,3,0,0,0,1.26-.11A1.25,1.25,0,0,0,53,40.1a3.28,3.28,0,0,0-.52-.06Z"/><path class="cls-1" d="M43,46.47a.37.37,0,0,1,0-.31c.83-2.19,1.66-4.37,2.47-6.56.14-.37.35-.44.71-.45a.6.6,0,0,1,.69.48c.76,2.16,1.55,4.31,2.32,6.47.14.39.12.42-.31.44-.66,0-.65,0-.89-.64-.14-.37-.16-.85-.48-1.08s-.78-.06-1.18-.07-.81,0-1.21,0a.56.56,0,0,0-.67.5c-.08.28-.2.56-.28.84a.54.54,0,0,1-.65.46C43.38,46.51,43.18,46.59,43,46.47Zm2-2.92c-.07.21,0,.32.24.32h2l-1.24-3.68Z"/><path class="cls-1" d="M105.33,46.44c.34-.93.68-1.82,1-2.7.51-1.37,1-2.74,1.55-4.11.07-.16.07-.41.31-.44a1.75,1.75,0,0,1,.82,0c.18,0,.19.26.25.41.65,1.8,1.29,3.6,1.94,5.39l.43,1.2c.08.2,0,.31-.2.34-.7.08-.8,0-1.06-.68-.5-1.35-.1-1.09-1.55-1.11-.47,0-.94,0-1.4,0a.44.44,0,0,0-.51.36c-.09.31-.21.6-.32.9-.2.54-.2.54-.78.54A.83.83,0,0,1,105.33,46.44Zm4.38-2.61c-.41-1.19-.8-2.34-1.2-3.48h-.1c-.35,1.14-.69,2.28-1.06,3.47Z"/><path class="cls-1" d="M126.82,46.47c-1,.16-1,.16-1.35-.73s-.37-1-1.46-1h-1.46a.46.46,0,0,0-.51.37c-.11.37-.24.73-.37,1.08a.89.89,0,0,1-1.08.3c-.16-.12-.06-.28,0-.41.25-.67.5-1.35.76-2,.55-1.45,1.1-2.9,1.64-4.34a.84.84,0,0,1,1.14-.53c.19.07.21.25.26.41.49,1.33,1,2.66,1.46,4,.3.82.59,1.63.88,2.45A.9.9,0,0,1,126.82,46.47Zm-3.35-6c-.25,1.14-.68,2.22-1,3.39h2.33l-1.14-3.39Q123.57,40.32,123.47,40.45Z"/><path class="cls-1" d="M75.75,46.54c.32-.83.59-1.56.87-2.3.58-1.54,1.18-3.08,1.74-4.64.14-.39.37-.44.72-.44a.55.55,0,0,1,.65.42c.77,2.18,1.57,4.35,2.35,6.52a.68.68,0,0,1,.06.37s-.07.06-.1.06c-1,0-.94,0-1.25-.83-.4-1.13-.12-.94-1.35-1-.47,0-.94,0-1.4,0s-.6.08-.69.47-.23.6-.32.9a.5.5,0,0,1-.59.43C76.25,46.52,76.06,46.54,75.75,46.54Zm2-2.67h2c.31,0,.36-.15.28-.4-.2-.6-.4-1.2-.61-1.8a7.1,7.1,0,0,0-.57-1.45C78.57,41.49,78.16,42.64,77.79,43.87Z"/></g></g></svg>